<svg width="293" height="84" viewBox="0 0 293 84" fill="none" xmlns="http://www.w3.org/2000/svg">
<path d="M90.456 65V20.2L99.224 18.728V34.344C101.869 32.2533 104.984 31.208 108.568 31.208C111.725 31.208 114.584 31.976 117.144 33.512C119.704 35.048 121.731 37.1173 123.224 39.72C124.76 42.28 125.528 45.16 125.528 48.36C125.528 51.56 124.76 54.4613 123.224 57.064C121.688 59.624 119.619 61.672 117.016 63.208C114.413 64.7013 111.512 65.448 108.312 65.448C106.648 65.448 105.027 65.2133 103.448 64.744C101.869 64.2747 100.419 63.592 99.096 62.696V65H90.456ZM107.16 58.024C108.995 58.024 110.637 57.5973 112.088 56.744C113.581 55.8907 114.755 54.7387 115.608 53.288C116.461 51.8373 116.888 50.1947 116.888 48.36C116.888 46.5253 116.461 44.8827 115.608 43.432C114.755 41.9387 113.581 40.7867 112.088 39.976C110.637 39.1227 108.995 38.696 107.16 38.696C105.539 38.696 104.045 38.9733 102.68 39.528C101.357 40.04 100.205 40.8293 99.224 41.896V54.888C100.163 55.8693 101.315 56.6373 102.68 57.192C104.088 57.7467 105.581 58.024 107.16 58.024ZM152.399 65.64C149.839 65.64 147.556 65.0853 145.551 63.976C143.588 62.824 142.031 61.2453 140.879 59.24C139.77 57.2347 139.215 54.9307 139.215 52.328V31.656H147.983V51.048C147.983 53.1813 148.602 54.888 149.839 56.168C151.119 57.448 152.826 58.088 154.959 58.088C156.41 58.088 157.711 57.8107 158.863 57.256C160.058 56.6587 161.039 55.8267 161.807 54.76V31.656H170.575V65H161.807V62.312C159.247 64.5307 156.111 65.64 152.399 65.64ZM186.048 65V31.656H194.816V65H186.048ZM190.4 27.688C189.035 27.688 187.862 27.1973 186.88 26.216C185.899 25.2347 185.408 24.0613 185.408 22.696C185.408 21.288 185.899 20.1147 186.88 19.176C187.862 18.1947 189.035 17.704 190.4 17.704C191.808 17.704 192.982 18.1947 193.92 19.176C194.902 20.1147 195.392 21.288 195.392 22.696C195.392 24.0613 194.902 25.2347 193.92 26.216C192.982 27.1973 191.808 27.688 190.4 27.688ZM210.313 65V20.2L219.081 18.728V65H210.313ZM250.386 65.512C246.674 65.512 243.858 64.68 241.938 63.016C240.061 61.3093 239.122 58.8347 239.122 55.592V38.952H232.274V31.656H239.122V23.144L247.89 21.16V31.656H257.426V38.952H247.89V53.8C247.89 55.336 248.232 56.4453 248.914 57.128C249.597 57.768 250.792 58.088 252.498 58.088C253.352 58.088 254.12 58.0453 254.802 57.96C255.528 57.832 256.317 57.6187 257.17 57.32V64.552C256.274 64.8507 255.144 65.0853 253.778 65.256C252.456 65.4267 251.325 65.512 250.386 65.512Z" fill="white"/>
<g clip-path="url(#clip0_4_7)">
<path d="M30 9C30 9 15.6 17.8443 0 19.8078V64.6769L30 84L60 64.6769V19.8078C45.8182 18.1698 30 9 30 9Z" fill="#004CFF"/>
<path d="M30.1818 28.125L20 34.2983V13.9139L14.5454 16.2064L9.81818 17.8443V59.0519L30.1818 70.8998L50.5454 59.4375V36.3538L30.1818 28.125ZM42.9091 54.1981L30.1818 61.0366L20 54.8667V42.5236L30.1818 36.3538L42.9091 41.4233V54.1981Z" fill="white"/>
</g>
<defs>
<clipPath id="clip0_4_7">
<rect width="60" height="75" fill="white" transform="translate(0 9)"/>
</clipPath>
</defs>
</svg>
